<svg xmlns="http://www.w3.org/2000/svg" viewBox="0 0 1000 1100" font-family="Helvetica, Arial, sans-serif">
<rect width="100%" height="100%" fill="#ffffff"/>
<text x="80" y="650" font-style="italic" fill="#3a6ea5" font-size="22">Atlantic Ocean</text>
<text x="820" y="700" font-style="italic" fill="#3a6ea5" font-size="20">Indian Ocean</text>
<text x="380" y="40" font-style="italic" fill="#3a6ea5" font-size="16">Mediterranean Sea</text>
<text x="760" y="220" font-style="italic" fill="#3a6ea5" font-size="14">Red Sea</text>
<g fill="#ffffff" stroke="#333" stroke-width="0.8" stroke-linejoin="round">
<path d="M412.1,137.9L412.3,139.2L410.1,141.2L409.1,143.5L407.9,150.4L409.0,153.6L408.4,155.8L409.6,158.1L408.7,159.1L407.8,164.4L403.4,166.8L402.5,168.9L399.5,170.6L399.1,173.2L401.8,178.6L402.2,181.0L406.0,182.1L408.5,185.3L409.0,188.8L417.1,193.8L422.7,215.4L420.0,216.6L423.0,220.3L425.2,224.4L426.5,231.9L425.6,238.0L427.5,242.7L425.0,249.0L426.3,253.8L427.2,254.3L426.5,258.3L422.2,260.1L421.1,262.5L428.5,272.1L428.7,277.7L430.6,278.7L432.9,281.8L436.3,280.8L446.0,283.9L451.0,292.9L425.1,307.8L398.6,323.7L379.7,339.9L361.6,343.4L351.0,345.4L348.5,343.3L350.3,340.8L349.8,335.6L346.1,333.9L340.5,332.9L337.9,330.3L334.5,330.6L331.8,328.8L331.7,327.4L326.2,325.1L326.0,320.8L312.5,312.4L299.3,303.4L279.9,290.4L257.0,275.8L245.3,268.6L229.3,259.1L212.5,249.4L212.5,245.0L212.4,233.0L224.3,225.2L226.7,225.0L230.3,222.3L236.6,223.1L238.6,220.3L248.3,219.3L253.0,216.0L255.7,212.2L261.4,210.7L266.1,207.5L269.6,207.2L270.9,205.4L268.4,204.6L268.4,198.6L271.8,198.7L278.2,196.7L279.6,193.9L286.4,193.2L298.5,193.9L298.1,191.2L300.9,189.1L296.6,186.6L294.7,184.1L295.4,182.7L293.3,180.4L294.1,177.5L292.5,175.3L293.4,170.9L292.3,167.8L293.1,166.3L291.1,164.9L292.3,163.3L287.4,160.2L287.0,159.3L292.0,159.0L298.0,155.6L300.6,152.5L303.4,151.5L305.4,152.0L308.1,149.9L311.2,151.3L314.9,147.6L323.5,143.6L326.2,142.9L342.9,141.8L346.0,139.6L352.6,139.9L357.5,138.2L367.8,138.4L371.5,139.8L373.1,141.3L375.2,141.2L378.5,139.3L384.5,138.2L387.2,136.2L388.7,137.5L392.4,138.6L395.3,138.1L396.0,136.2L402.2,137.6L404.3,139.0L407.6,137.7L412.1,137.9Z"><title>Algeria</title></path>
<path d="M463.7,618.0L460.6,619.2L457.3,623.6L457.2,630.6L453.6,631.1L453.8,627.8L451.4,622.4L453.5,619.5L455.1,619.7L455.9,617.7L458.6,617.2L461.1,615.3L463.7,618.0Z M464.7,632.2L474.0,631.9L481.1,632.8L486.6,632.2L501.6,632.1L504.2,632.9L505.7,636.1L505.3,638.5L508.5,645.5L508.2,647.7L510.6,650.6L514.9,657.5L519.0,657.4L521.8,658.2L522.7,656.9L536.3,656.9L536.3,652.0L538.1,650.7L538.2,645.3L547.1,645.3L547.4,644.4L550.8,644.4L549.8,648.6L564.1,648.6L564.9,652.2L564.0,654.3L564.4,657.6L565.9,662.7L564.2,673.1L564.9,675.6L568.4,679.1L570.2,684.2L570.3,688.4L568.5,690.0L570.1,694.3L572.6,692.1L574.9,692.6L580.7,692.5L583.9,691.1L588.4,691.7L589.5,690.1L590.7,696.2L589.3,699.1L589.4,705.4L590.3,707.7L588.5,712.7L589.9,714.7L566.6,714.7L566.6,751.3L568.1,754.9L572.2,758.3L580.5,766.4L583.7,768.1L581.4,768.5L559.4,772.6L557.7,771.7L553.4,772.6L549.8,772.2L547.4,770.8L536.7,770.8L532.3,770.4L529.1,769.5L525.6,765.4L476.7,765.3L474.1,765.8L470.2,763.3L468.1,761.0L464.5,760.3L461.3,761.3L458.1,763.5L454.5,763.5L452.1,762.4L448.3,763.8L449.0,755.1L448.0,747.6L451.2,744.6L451.8,740.3L454.3,734.8L455.0,727.4L457.0,724.3L457.0,719.7L462.3,714.1L461.8,712.8L464.9,710.1L468.1,708.8L471.5,702.4L472.5,691.6L471.0,689.0L471.3,687.4L468.9,685.0L466.3,679.7L464.3,672.4L462.5,669.5L467.4,664.5L467.2,661.5L465.7,658.8L461.2,648.5L460.6,644.8L457.3,641.1L454.7,635.0L460.2,634.0L464.7,632.2Z"><title>Angola</title></path>
<path d="M331.4,492.7L333.3,492.0L330.7,487.4L331.5,483.7L331.6,477.3L331.3,460.3L328.9,456.9L328.2,449.1L324.1,446.5L321.5,444.7L321.9,440.6L323.1,437.5L329.1,432.2L331.2,433.0L335.7,432.7L339.2,429.5L340.2,427.1L340.2,423.0L345.3,421.4L354.2,429.5L352.7,432.5L355.2,435.9L357.0,440.9L356.3,444.4L354.5,444.3L355.0,446.9L353.2,450.8L351.3,451.2L351.4,452.7L348.8,455.5L348.3,459.5L344.8,459.9L344.2,463.2L344.3,469.7L343.6,473.2L344.6,482.1L343.9,491.0L331.4,492.7Z"><title>Benin</title></path>
<path d="M573.8,866.1L569.5,868.7L567.1,872.1L564.0,872.7L562.8,874.8L559.5,874.3L556.7,874.8L553.7,874.0L551.6,874.9L550.7,873.7L550.5,870.0L553.4,866.3L552.9,863.4L551.4,861.2L550.8,858.3L548.0,853.7L543.5,850.5L543.5,818.7L555.0,818.6L555.0,776.1L560.4,775.9L579.0,772.5L581.6,772.4L584.6,776.2L584.7,777.8L586.5,777.3L589.3,774.5L593.8,771.9L596.4,773.0L599.2,770.6L604.3,770.1L604.0,771.5L607.4,777.1L609.6,779.2L612.7,783.9L614.5,789.7L616.9,791.1L621.3,794.7L626.7,796.5L627.7,798.3L627.7,801.2L632.7,801.5L632.3,807.9L634.0,809.6L636.0,813.5L643.4,814.6L648.4,816.6L648.5,819.2L651.8,820.8L647.7,821.2L646.4,823.9L643.2,825.1L640.1,825.2L633.4,832.1L631.3,832.7L630.4,834.6L628.2,834.8L624.1,838.1L622.7,844.5L619.2,846.7L617.4,849.0L611.3,850.3L611.3,852.1L608.0,860.4L605.3,862.0L601.5,861.7L597.1,862.7L593.0,861.6L591.9,860.4L588.6,860.5L583.3,856.4L578.3,856.7L577.1,857.8L573.8,866.1Z"><title>Botswana</title></path>
<path d="M315.3,392.3L314.5,396.8L317.3,400.0L316.6,401.4L319.7,406.5L324.0,407.8L324.0,413.8L325.4,414.3L330.8,418.7L334.2,418.9L335.5,417.5L337.3,417.9L338.5,421.1L336.3,421.8L340.2,427.1L339.2,429.5L335.7,432.7L331.2,433.0L329.1,432.2L323.1,437.5L318.4,437.4L310.8,435.9L309.2,435.6L305.4,438.5L304.7,437.5L279.8,437.5L278.7,440.9L280.5,446.5L280.5,454.0L281.5,455.0L280.2,455.7L278.0,452.2L275.5,450.2L270.6,449.6L263.3,452.1L262.8,453.6L258.2,452.5L255.4,449.6L253.4,445.6L250.5,445.7L248.8,444.0L250.0,439.4L249.2,436.6L251.3,435.9L252.5,431.2L251.6,427.7L253.1,426.5L259.0,425.2L261.5,422.5L262.1,419.7L260.9,417.6L263.8,417.5L264.0,415.1L262.5,413.1L266.6,408.9L271.6,412.3L275.2,411.1L274.9,406.3L279.3,406.8L280.0,402.3L284.0,399.5L288.2,401.1L289.4,400.7L289.7,397.4L293.2,397.1L297.3,394.4L300.1,393.9L304.2,390.3L309.7,390.4L315.3,392.3Z"><title>Burkina Faso</title></path>
<path d="M652.3,615.9L651.9,612.6L650.2,609.8L650.2,602.3L650.0,599.4L647.3,597.0L647.7,596.2L648.2,594.5L651.3,595.2L651.5,597.0L654.0,596.9L657.3,596.4L658.4,591.2L660.8,592.6L663.4,591.1L665.6,592.2L663.8,597.4L666.7,598.9L668.7,598.9L668.6,602.1L664.2,605.5L659.3,613.8L656.3,615.8L652.3,615.9Z"><title>Burundi</title></path>
<path d="M475.1,413.5L479.3,413.4L480.6,417.1L483.8,418.7L484.5,424.2L486.3,425.0L487.0,431.7L486.0,435.2L486.4,439.8L488.0,443.2L491.5,447.9L490.6,449.9L488.5,449.2L483.2,450.0L479.5,449.1L476.5,449.2L473.7,453.1L480.8,460.6L484.9,463.2L488.1,466.5L490.8,473.2L492.5,475.8L491.5,477.6L488.4,481.0L486.5,486.2L485.3,486.8L482.8,492.2L479.2,494.3L481.4,496.4L481.4,500.8L480.4,503.4L481.8,504.4L482.6,510.9L485.9,513.5L487.5,517.5L486.3,518.0L488.8,522.1L495.1,528.7L496.6,528.7L498.5,531.1L498.6,536.7L499.7,538.9L498.3,539.6L499.2,544.6L497.6,544.5L494.5,542.5L486.8,541.7L480.7,539.5L479.6,539.8L466.1,539.5L464.8,538.2L459.8,538.7L455.0,537.8L453.7,538.2L443.9,537.9L443.5,539.5L428.9,539.5L425.9,537.5L426.8,530.4L427.6,528.9L426.6,526.4L424.1,523.7L422.6,518.5L420.8,519.5L416.1,517.1L415.3,513.0L411.1,512.5L411.8,509.0L414.3,504.9L415.6,499.9L415.0,497.0L420.7,491.5L424.7,489.2L425.7,486.0L426.6,486.3L429.9,483.4L430.4,484.8L433.9,485.1L435.2,483.1L437.6,484.1L440.5,487.2L440.9,490.1L444.3,489.6L446.9,484.3L449.8,482.2L448.7,480.8L451.6,477.1L451.6,475.1L453.5,472.1L454.1,467.4L455.7,465.3L459.1,464.5L460.3,463.2L461.5,456.6L464.9,454.4L465.8,448.0L467.9,447.3L469.4,441.1L474.3,434.2L476.4,434.7L481.3,431.7L481.0,429.5L481.7,423.8L479.9,422.1L476.9,421.9L475.1,413.5Z"><title>Cameroon</title></path>
<path d="M20.6,369.2L20.0,367.1L22.7,366.0L24.1,366.9L20.6,369.2Z M49.2,380.0L47.5,379.5L48.4,377.4L50.8,378.6L49.2,380.0Z M40.8,392.5L37.8,390.5L38.9,387.9L41.8,391.2L40.8,392.5Z"><title>Cape Verde</title></path>
<path d="M527.6,524.4L526.1,522.5L523.0,524.2L514.5,521.7L512.9,522.8L505.4,523.6L504.1,524.3L502.9,528.1L503.1,531.6L499.7,538.9L498.6,536.7L498.5,531.1L496.6,528.7L495.1,528.7L488.8,522.1L486.3,518.0L487.5,517.5L485.9,513.5L482.6,510.9L481.8,504.4L480.4,503.4L481.4,500.8L481.4,496.4L479.2,494.3L482.8,492.2L485.3,486.8L486.5,486.2L488.4,481.0L491.5,477.6L495.0,478.4L503.9,474.7L506.3,477.2L509.6,476.0L511.6,474.4L516.5,472.3L527.2,471.7L533.4,464.4L530.4,462.3L533.0,460.5L542.7,459.9L544.3,459.0L547.8,459.3L549.3,457.4L552.8,455.7L555.6,451.7L558.9,449.5L563.7,444.3L563.4,441.7L572.0,437.5L576.6,438.4L578.3,441.0L581.7,443.7L585.9,450.6L585.7,457.4L583.3,460.3L584.9,461.7L584.1,463.9L592.0,464.2L592.8,465.3L591.3,467.8L592.6,468.9L599.7,470.2L602.2,473.3L604.2,473.9L604.7,475.9L603.6,477.9L605.6,479.8L611.1,482.4L614.0,485.5L617.5,487.9L616.4,490.8L618.9,493.2L618.0,494.4L622.2,495.5L626.0,497.9L627.6,500.1L627.1,501.8L629.6,506.6L625.3,504.4L622.8,506.5L618.8,506.3L615.1,504.1L611.8,504.7L607.5,502.4L605.4,503.1L604.8,506.4L598.2,507.8L594.3,505.4L594.0,506.7L584.8,509.9L581.9,511.4L576.9,508.9L572.9,515.7L569.6,516.8L566.5,515.5L562.6,514.9L561.0,515.5L557.5,515.0L553.2,513.1L550.6,513.6L548.7,512.3L547.5,509.5L541.7,505.8L536.6,505.3L532.7,508.1L529.4,513.5L526.7,514.9L527.9,518.3L527.2,521.4L527.6,524.4Z"><title>Central African Republic</title></path>
<path d="M576.6,438.4L572.0,437.5L563.4,441.7L563.7,444.3L558.9,449.5L555.6,451.7L552.8,455.7L549.3,457.4L547.8,459.3L544.3,459.0L542.7,459.9L533.0,460.5L530.4,462.3L533.4,464.4L527.2,471.7L516.5,472.3L511.6,474.4L509.6,476.0L506.3,477.2L503.9,474.7L495.0,478.4L491.5,477.6L492.5,475.8L490.8,473.2L488.1,466.5L484.9,463.2L480.8,460.6L473.7,453.1L476.5,449.2L479.5,449.1L483.2,450.0L488.5,449.2L490.6,449.9L491.5,447.9L488.0,443.2L486.4,439.8L486.0,435.2L487.0,431.7L486.3,425.0L484.5,424.2L483.8,418.7L480.6,417.1L479.3,413.4L475.1,413.5L469.9,406.1L468.0,397.9L470.4,396.6L471.8,394.4L472.6,390.9L478.5,382.8L491.3,369.4L491.8,364.0L492.7,347.6L494.5,334.3L497.3,329.5L492.4,324.7L493.0,322.5L489.1,316.9L488.1,316.3L488.0,310.5L485.8,298.9L497.3,293.7L508.6,298.9L535.4,311.7L554.6,321.2L570.3,329.2L589.7,339.3L589.7,383.2L585.2,382.5L582.3,383.4L579.4,383.1L577.4,384.8L578.1,387.0L577.4,390.0L574.3,392.9L574.7,394.9L571.0,396.8L573.0,401.5L569.3,403.3L567.6,405.4L570.0,410.0L568.4,412.2L566.0,413.8L564.6,416.7L566.3,418.6L569.2,417.3L572.0,418.8L571.3,420.4L573.7,426.0L573.0,429.7L574.2,431.6L577.4,432.7L577.9,435.1L576.6,438.4Z"><title>Chad</title></path>
<path d="M814.4,702.4L811.7,700.4L812.0,696.6L813.4,695.8L814.4,702.4Z"><title>Comoros</title></path>
<path d="M463.7,618.0L461.1,615.3L458.6,617.2L455.9,617.7L455.1,619.7L453.5,619.5L451.4,622.4L449.0,619.8L448.7,617.3L441.2,609.9L442.1,607.2L445.2,605.1L449.3,605.6L450.6,602.5L447.6,601.2L448.9,599.4L447.1,597.2L448.0,592.5L450.5,591.5L451.7,592.4L456.6,591.4L456.3,587.9L458.6,585.6L460.6,586.6L462.8,591.3L468.2,592.7L471.1,589.8L472.8,591.3L472.6,593.0L475.5,593.3L476.5,591.8L477.3,587.2L479.1,586.5L479.8,578.5L479.1,575.3L480.2,571.7L479.0,570.1L476.4,569.7L475.8,567.8L472.5,566.9L473.6,564.2L472.9,561.9L475.1,558.5L477.4,558.2L479.8,554.0L477.9,551.8L477.4,549.2L473.0,547.9L469.3,549.5L465.6,549.1L464.2,546.2L466.1,539.5L479.6,539.8L480.7,539.5L486.8,541.7L494.5,542.5L497.6,544.5L499.2,544.6L498.3,539.6L499.7,538.9L503.1,531.6L502.9,528.1L504.1,524.3L505.4,523.6L512.9,522.8L514.5,521.7L523.0,524.2L526.1,522.5L527.6,524.4L527.8,527.5L524.1,534.7L521.5,538.8L521.2,546.9L519.0,552.7L519.8,560.6L518.1,562.8L517.1,566.5L517.1,570.7L515.2,573.6L511.9,576.5L508.5,577.9L506.6,579.7L503.2,586.4L499.6,589.6L499.4,597.7L499.9,603.0L496.1,610.1L492.3,611.2L490.6,614.2L488.0,614.8L483.7,620.3L481.6,621.2L479.1,619.5L478.4,617.3L479.8,615.7L478.8,613.9L473.8,616.5L471.1,615.9L470.7,619.1L467.4,620.9L463.7,618.0Z"><title>Congo</title></path>
<path d="M802.2,420.5L803.8,420.1L805.7,421.7L806.9,419.9L810.5,417.8L813.9,423.3L813.4,426.1L809.7,428.2L806.7,428.9L807.6,430.7L810.9,430.9L812.0,432.1L808.5,437.5L804.9,436.4L797.7,438.2L795.4,437.7L794.8,431.6L795.6,428.9L797.0,428.1L802.2,420.5Z"><title>Djibouti</title></path>
<path d="M738.6,310.5L675.8,310.5L676.5,308.6L675.0,308.1L673.8,310.5L648.3,310.5L601.3,310.5L601.2,226.7L599.8,223.7L599.3,219.5L597.9,215.9L600.4,212.2L601.4,208.8L599.7,204.7L599.7,202.3L603.0,199.0L603.2,200.2L605.9,200.7L610.6,199.5L628.4,202.3L629.4,203.9L631.9,204.5L634.4,203.9L635.1,205.4L640.6,205.5L645.3,207.1L647.9,208.6L653.0,207.2L659.7,202.8L662.4,203.8L663.1,200.7L665.8,202.1L672.1,200.7L671.8,199.6L677.6,201.4L683.0,205.6L685.4,205.0L685.9,203.4L688.5,205.7L690.4,206.1L695.1,204.3L695.3,205.8L698.4,204.7L702.2,205.0L708.0,203.1L715.0,221.1L715.6,224.0L714.0,225.7L712.4,232.7L709.9,237.6L710.2,241.5L708.2,243.6L706.7,243.5L702.5,240.9L700.2,237.8L696.4,234.8L695.6,229.6L692.3,226.9L690.7,224.4L690.1,221.1L687.8,219.7L686.0,222.8L689.0,225.7L689.3,229.9L695.1,237.8L700.1,242.5L699.4,245.3L701.5,248.6L703.2,249.7L704.6,253.5L704.4,256.6L706.1,258.3L710.3,266.1L711.5,267.4L717.7,279.0L718.3,281.4L722.3,285.6L722.4,293.1L724.5,299.3L726.6,301.7L730.9,303.1L733.7,306.8L738.6,310.5Z"><title>Egypt</title></path>
<path d="M412.2,522.4L413.5,521.1L416.0,522.3L412.8,527.6L410.2,526.9L410.4,524.6L412.2,522.4Z M425.9,537.5L428.9,539.5L443.5,539.5L443.7,553.0L425.8,552.9L420.6,551.0L423.5,545.6L425.9,542.3L425.9,537.5Z"><title>Equatorial Guinea</title></path>
<path d="M746.4,401.7L743.1,397.6L740.6,399.6L737.8,399.1L734.6,399.8L733.4,389.6L734.6,388.6L736.3,382.6L739.5,376.4L738.6,373.8L739.9,370.7L740.1,368.1L744.2,367.7L745.7,364.5L754.4,362.0L756.7,358.1L758.3,356.7L762.3,364.2L764.8,371.9L765.6,378.3L767.8,382.4L768.2,385.2L771.8,386.7L773.1,385.6L776.5,391.6L779.7,391.2L782.3,392.4L783.8,394.7L788.0,395.5L793.8,403.6L797.1,404.5L799.7,407.7L800.9,407.8L801.8,411.8L805.9,413.8L806.9,416.2L809.1,415.6L810.5,417.8L806.9,419.9L805.7,421.7L803.8,420.1L802.2,420.5L800.1,417.6L797.6,416.2L795.4,412.5L793.1,410.3L788.5,407.2L786.6,404.0L783.9,401.2L779.4,399.5L775.8,397.4L772.0,396.9L766.0,397.4L763.2,395.3L761.7,397.1L756.5,398.0L754.4,395.0L751.8,394.5L750.4,392.6L746.4,401.7Z"><title>Eritrea</title></path>
<path d="M746.4,401.7L750.4,392.6L751.8,394.5L754.4,395.0L756.5,398.0L761.7,397.1L763.2,395.3L766.0,397.4L772.0,396.9L775.8,397.4L779.4,399.5L783.9,401.2L786.6,404.0L788.5,407.2L793.1,410.3L795.4,412.5L797.6,416.2L800.1,417.6L802.2,420.5L797.0,428.1L795.6,428.9L794.8,431.6L795.4,437.7L797.7,438.2L804.9,436.4L808.5,437.5L805.3,441.6L807.4,446.5L810.0,449.8L811.4,450.2L814.1,455.6L816.4,456.5L820.8,460.5L855.5,472.1L866.7,472.1L855.2,483.0L843.3,495.2L831.7,507.9L820.5,507.2L814.8,508.8L808.9,512.3L807.7,514.7L802.0,516.0L799.8,515.9L796.5,518.6L787.7,518.9L783.5,515.0L772.9,519.8L772.0,522.0L768.7,524.6L761.9,523.9L757.4,522.6L752.8,522.8L751.4,521.5L738.5,513.3L728.8,513.2L727.6,511.1L725.7,509.1L726.2,503.0L722.1,501.8L720.9,502.7L717.9,499.5L714.0,488.2L711.3,486.6L710.6,484.7L707.9,483.5L705.5,480.9L705.5,479.3L701.9,476.1L699.1,475.1L694.3,474.6L693.6,472.9L695.8,470.4L695.5,468.0L696.6,466.8L700.9,466.7L701.6,467.6L704.7,467.2L706.6,465.4L706.7,461.1L706.2,454.2L707.9,448.7L709.2,446.2L708.5,442.6L712.1,438.8L714.4,440.7L716.5,439.1L716.4,434.2L717.8,431.3L717.5,428.6L719.4,427.2L724.8,418.2L729.9,417.8L729.8,415.3L731.2,410.1L732.9,407.8L733.4,403.3L734.6,399.8L737.8,399.1L740.6,399.6L743.1,397.6L746.4,401.7Z"><title>Ethiopia</title></path>
<path d="M425.8,552.9L443.7,553.0L443.5,539.5L443.9,537.9L453.7,538.2L455.0,537.8L459.8,538.7L464.8,538.2L466.1,539.5L464.2,546.2L465.6,549.1L469.3,549.5L473.0,547.9L477.4,549.2L477.9,551.8L479.8,554.0L477.4,558.2L475.1,558.5L472.9,561.9L473.6,564.2L472.5,566.9L475.8,567.8L476.4,569.7L479.0,570.1L480.2,571.7L479.1,575.3L479.8,578.5L479.1,586.5L477.3,587.2L476.5,591.8L475.5,593.3L472.6,593.0L472.8,591.3L471.1,589.8L468.2,592.7L462.8,591.3L460.6,586.6L458.6,585.6L456.3,587.9L456.6,591.4L451.7,592.4L450.5,591.5L448.0,592.5L447.1,597.2L448.9,599.4L447.6,601.2L450.6,602.5L449.3,605.6L445.2,605.1L442.1,607.2L441.2,609.9L435.3,602.7L431.5,598.9L426.7,595.1L427.8,594.1L426.5,592.5L425.2,593.1L420.9,587.8L422.1,586.1L419.4,585.8L420.0,582.8L417.0,579.7L413.1,571.9L416.6,574.0L417.6,571.5L419.9,568.8L420.9,562.2L422.3,561.2L420.2,557.3L423.7,555.5L422.9,553.5L425.8,552.9Z"><title>Gabon</title></path>
<path d="M121.2,407.6L133.7,407.6L135.5,405.2L141.0,405.4L142.5,407.3L143.9,406.7L147.0,409.1L151.0,407.7L153.1,409.3L152.3,410.7L148.4,411.7L139.8,408.9L138.0,407.5L135.9,410.1L130.0,410.4L130.0,412.5L119.8,412.5L119.1,413.7L118.3,410.1L121.2,407.6Z"><title>Gambia</title></path>
<path d="M276.7,505.8L276.7,505.5L278.7,505.6L280.7,505.6L280.6,500.1L277.7,498.6L277.8,496.9L275.0,488.2L275.3,485.8L277.6,482.8L278.8,476.8L280.5,472.8L283.8,469.9L281.9,460.5L280.6,459.9L281.6,457.9L281.5,455.0L280.5,454.0L280.5,446.5L278.7,440.9L279.8,437.5L304.7,437.5L305.4,438.5L309.2,435.6L310.8,435.9L312.8,436.5L311.6,441.0L316.8,446.0L316.3,451.8L316.7,454.9L318.9,455.8L317.7,460.4L318.2,463.0L317.0,463.4L319.8,466.4L320.9,468.9L319.6,469.6L319.7,473.3L318.4,478.4L320.0,479.0L319.6,483.5L318.6,484.3L321.0,489.5L324.1,491.5L326.4,494.1L323.2,497.9L316.1,497.8L311.7,500.1L308.4,501.1L303.4,504.4L293.8,506.6L288.8,509.9L285.6,507.8L276.7,505.8Z"><title>Ghana</title></path>
<path d="M194.0,466.5L192.6,466.4L190.6,468.6L189.0,468.7L191.2,463.9L190.4,459.9L188.6,459.7L189.4,457.0L187.4,455.0L183.0,449.1L175.2,449.1L172.4,450.5L171.2,449.8L168.3,450.6L166.1,455.8L163.0,457.4L162.3,459.4L159.0,460.2L159.3,459.0L156.1,454.8L154.6,454.1L155.5,451.7L153.7,451.8L150.1,448.7L145.6,445.6L144.5,443.4L143.3,443.6L143.5,441.1L142.2,439.4L139.8,440.1L139.1,438.0L143.0,431.6L144.9,431.6L147.7,429.7L150.9,430.1L154.2,429.2L154.2,425.9L151.7,424.2L152.5,422.7L154.7,422.2L154.2,418.1L161.7,418.6L170.0,422.5L172.5,421.5L181.2,421.2L179.8,423.6L181.9,425.7L183.8,425.4L186.3,423.3L189.5,427.2L193.3,423.3L200.5,425.6L201.9,423.8L205.0,422.8L206.8,420.3L209.3,422.0L208.8,423.4L210.9,425.9L210.5,429.8L215.9,433.1L212.4,437.3L216.0,436.8L217.0,443.3L220.4,445.2L220.5,447.1L218.9,448.5L218.4,453.4L219.6,456.0L221.6,456.5L220.7,463.1L223.9,465.1L222.2,466.5L218.0,466.3L217.5,469.4L219.9,470.1L219.2,474.4L217.6,477.4L214.7,477.2L213.8,475.7L212.0,476.2L210.4,480.6L207.5,481.3L205.8,479.3L203.7,478.8L204.4,475.0L203.0,468.1L200.9,466.5L194.0,466.5Z"><title>Guinea</title></path>
<path d="M119.5,422.2L125.3,420.6L131.4,421.0L136.8,418.0L154.2,418.1L154.7,422.2L152.5,422.7L151.7,424.2L154.2,425.9L154.2,429.2L150.9,430.1L147.7,429.7L144.9,431.6L143.0,431.6L139.1,438.0L138.2,436.7L134.7,435.4L133.0,429.6L131.6,428.3L128.2,429.0L128.6,427.4L123.9,426.0L123.7,423.7L119.5,422.2Z"><title>Guinea-Bissau</title></path>
<path d="M225.6,514.3L225.2,513.8L225.2,506.2L227.5,503.1L226.8,497.1L222.9,495.9L222.2,492.9L218.2,492.1L213.5,489.1L216.6,485.3L216.9,481.6L214.7,477.2L217.6,477.4L219.2,474.4L219.9,470.1L217.5,469.4L218.0,466.3L222.2,466.5L223.9,465.1L220.7,463.1L221.6,456.5L219.6,456.0L218.4,453.4L218.9,448.5L220.5,447.1L222.2,446.6L224.4,443.9L230.9,446.7L232.4,444.9L235.7,445.0L235.8,441.4L238.3,442.7L238.6,441.0L241.1,441.6L241.0,446.3L243.2,446.8L245.8,444.1L248.8,444.0L250.5,445.7L253.4,445.6L255.4,449.6L258.2,452.5L262.8,453.6L263.3,452.1L270.6,449.6L275.5,450.2L278.0,452.2L280.2,455.7L281.5,455.0L281.6,457.9L280.6,459.9L281.9,460.5L283.8,469.9L280.5,472.8L278.8,476.8L277.6,482.8L275.3,485.8L275.0,488.2L277.8,496.9L277.7,498.6L280.6,500.1L280.7,505.6L278.7,505.6L273.3,505.4L266.6,504.0L265.6,503.4L261.0,503.4L257.1,504.3L257.2,505.2L245.3,506.3L234.7,510.4L232.7,510.8L226.7,514.3L225.6,514.3Z"><title>Ivory Coast</title></path>
<path d="M728.8,513.2L738.5,513.3L751.4,521.5L752.8,522.8L757.4,522.6L761.9,523.9L768.7,524.6L772.0,522.0L772.9,519.8L783.5,515.0L787.7,518.9L796.5,518.6L789.9,528.0L785.9,531.9L785.9,564.5L786.0,574.5L792.5,582.9L792.5,583.9L789.7,587.1L784.8,587.8L783.8,592.3L777.2,595.3L775.6,602.6L774.2,603.5L772.6,608.4L767.6,618.0L765.3,618.5L748.9,606.7L746.9,605.0L748.2,602.8L747.6,599.8L709.9,578.7L705.4,576.1L704.3,576.1L704.3,569.8L704.9,566.1L704.1,563.3L706.4,560.1L707.0,557.5L709.9,555.0L711.3,551.7L714.7,550.3L714.3,548.4L716.7,545.3L716.7,540.4L715.4,537.3L715.7,535.4L713.9,531.6L712.0,530.6L709.9,525.5L710.5,522.1L707.8,520.9L705.2,515.8L709.7,511.3L727.6,511.1L728.8,513.2Z"><title>Kenya</title></path>
<path d="M649.0,908.4L649.4,910.1L643.7,912.6L640.3,912.8L636.8,918.5L632.9,917.9L629.7,914.7L628.7,914.7L624.6,906.6L627.7,905.6L633.6,898.5L636.1,897.9L638.0,895.9L643.3,894.5L646.9,898.1L651.3,900.5L652.7,903.4L649.0,908.4Z"><title>Lesotho</title></path>
<path d="M179.8,484.5L182.0,481.2L187.3,477.4L190.0,474.8L190.1,471.7L193.6,469.8L194.0,466.5L200.9,466.5L203.0,468.1L204.4,475.0L203.7,478.8L205.8,479.3L207.5,481.3L210.4,480.6L212.0,476.2L213.8,475.7L214.7,477.2L216.9,481.6L216.6,485.3L213.5,489.1L218.2,492.1L222.2,492.9L222.9,495.9L226.8,497.1L227.5,503.1L225.2,506.2L225.2,513.8L225.6,514.3L223.4,514.2L220.7,512.5L216.2,510.9L207.9,506.7L203.9,503.8L192.8,493.4L187.7,491.7L186.9,489.6L181.4,487.2L179.8,484.5Z"><title>Liberia</title></path>
<path d="M451.0,292.9L446.0,283.9L436.3,280.8L432.9,281.8L430.6,278.7L428.7,277.7L428.5,272.1L421.1,262.5L422.2,260.1L426.5,258.3L427.2,254.3L426.3,253.8L425.0,249.0L427.5,242.7L425.6,238.0L426.5,231.9L425.2,224.4L423.0,220.3L420.0,216.6L422.7,215.4L426.8,213.9L430.5,209.6L431.4,207.5L429.5,201.6L431.6,198.2L433.4,198.2L438.2,193.4L444.4,190.9L446.3,189.6L445.0,187.5L445.6,181.4L449.8,182.7L454.3,185.2L461.5,185.6L465.7,184.4L469.8,185.9L476.5,186.8L479.3,188.9L487.3,190.2L490.0,193.0L489.8,195.0L492.9,200.8L496.9,203.1L500.2,203.9L505.5,203.9L513.2,205.6L522.5,209.0L527.3,212.7L531.6,214.9L536.0,214.7L540.9,212.0L543.8,208.8L545.3,204.8L543.1,200.6L542.8,195.5L544.5,192.8L549.9,188.6L555.8,186.0L559.4,186.0L562.2,184.2L570.7,184.8L572.7,186.0L579.5,187.7L579.1,191.1L581.0,192.5L586.5,193.0L590.8,195.0L601.0,195.3L603.0,199.0L599.7,202.3L599.7,204.7L601.4,208.8L600.4,212.2L597.9,215.9L599.3,219.5L599.8,223.7L601.2,226.7L601.3,310.5L601.3,333.6L589.7,333.5L589.7,339.3L570.3,329.2L554.6,321.2L535.4,311.7L508.6,298.9L497.3,293.7L485.8,298.9L476.9,303.4L469.7,297.4L467.4,296.4L451.0,292.9Z"><title>Libya</title></path>
<path d="M870.7,719.5L869.1,717.8L870.6,717.0L870.7,719.5Z M867.2,726.9L865.8,725.0L865.8,721.5L867.7,720.7L868.9,723.4L870.7,723.6L870.7,721.1L876.1,718.7L876.4,716.0L877.9,712.6L878.1,707.2L880.4,705.8L879.9,704.3L881.4,702.5L882.5,704.2L881.6,706.4L884.4,707.1L884.9,710.3L887.6,712.5L889.3,715.1L889.2,716.8L891.1,721.9L892.5,729.6L892.3,732.8L893.9,737.7L895.6,740.1L895.0,744.5L892.7,748.9L890.4,747.8L888.4,742.7L885.8,744.0L886.9,748.2L886.6,750.8L888.1,751.6L888.2,755.8L886.8,757.5L887.5,758.9L885.2,759.9L883.4,764.3L884.3,768.7L882.7,776.5L878.4,788.1L876.3,794.7L874.0,800.0L871.2,810.4L869.4,815.7L865.8,823.9L865.0,828.6L862.1,839.3L859.3,845.2L856.4,852.9L852.2,855.2L847.7,855.2L842.9,857.0L838.6,859.7L834.7,860.0L829.7,857.0L826.7,856.6L820.9,853.1L818.8,847.5L816.8,845.3L816.7,837.3L817.7,835.3L816.4,834.2L816.0,831.3L813.3,828.3L811.9,821.9L813.0,815.8L814.6,814.8L814.9,810.9L818.1,810.1L819.5,805.7L821.6,803.0L824.8,797.1L826.2,795.3L825.0,792.9L826.3,790.0L823.3,784.7L823.7,782.3L821.2,777.3L820.7,771.8L821.0,769.6L819.9,767.9L820.3,765.7L825.7,757.3L825.8,751.7L830.8,751.7L835.3,748.5L838.8,748.7L840.5,746.9L847.3,746.0L849.1,743.6L856.6,739.1L858.9,736.8L861.0,738.6L864.0,733.2L863.4,730.9L864.9,728.9L866.9,729.9L867.2,726.9Z"><title>Madagascar</title></path>
<path d="M696.2,726.4L693.5,725.5L691.2,722.1L693.4,717.3L694.0,713.6L693.2,711.8L694.5,709.8L697.9,709.3L698.1,707.0L696.8,704.8L697.4,698.7L696.5,696.5L698.4,693.4L696.5,690.4L698.9,689.3L701.8,686.5L700.1,682.6L697.5,680.9L697.8,679.2L696.0,675.4L693.6,675.6L693.0,673.1L697.3,674.1L698.7,675.6L702.4,675.2L704.3,676.6L705.7,674.0L709.0,676.9L711.4,680.6L711.9,686.5L712.8,687.6L712.3,692.8L716.2,697.1L716.4,698.2L712.4,698.2L712.3,700.4L709.4,705.6L711.0,710.6L711.7,718.3L712.8,720.4L715.6,720.7L717.8,722.6L726.9,733.8L727.4,736.4L726.0,739.8L726.8,742.6L726.2,749.4L720.1,752.0L719.6,754.8L718.3,755.7L719.9,757.5L720.1,762.4L717.8,762.4L718.4,759.0L716.7,758.4L709.9,751.7L710.1,749.9L708.2,748.3L710.0,745.5L710.2,743.1L712.0,741.0L711.4,733.3L709.3,730.7L701.0,732.4L696.2,726.4Z"><title>Malawi</title></path>
<path d="M257.0,275.8L279.9,290.4L299.3,303.4L312.5,312.4L326.0,320.8L326.2,325.1L331.7,327.4L331.8,328.8L334.5,330.6L337.9,330.3L340.5,332.9L346.1,333.9L349.8,335.6L350.3,340.8L348.5,343.3L351.0,345.4L361.6,343.4L361.7,368.3L361.0,370.3L361.1,375.2L359.5,376.4L357.6,382.7L353.7,385.4L353.2,387.2L347.6,386.3L347.4,387.3L342.9,387.3L327.7,388.0L323.8,391.5L320.6,392.0L315.2,391.3L315.3,392.3L309.7,390.4L304.2,390.3L300.1,393.9L297.3,394.4L293.2,397.1L289.7,397.4L289.4,400.7L288.2,401.1L284.0,399.5L280.0,402.3L279.3,406.8L274.9,406.3L275.2,411.1L271.6,412.3L266.6,408.9L262.5,413.1L264.0,415.1L263.8,417.5L260.9,417.6L262.1,419.7L261.5,422.5L259.0,425.2L253.1,426.5L251.6,427.7L252.5,431.2L251.3,435.9L249.2,436.6L250.0,439.4L248.8,444.0L245.8,444.1L243.2,446.8L241.0,446.3L241.1,441.6L238.6,441.0L238.3,442.7L235.8,441.4L235.7,445.0L232.4,444.9L230.9,446.7L224.4,443.9L222.2,446.6L220.5,447.1L220.4,445.2L217.0,443.3L216.0,436.8L212.4,437.3L215.9,433.1L210.5,429.8L210.9,425.9L208.8,423.4L209.3,422.0L206.8,420.3L205.0,422.8L201.9,423.8L200.5,425.6L193.3,423.3L189.5,427.2L186.3,423.3L183.8,425.4L181.9,425.7L179.8,423.6L181.2,421.2L180.6,418.4L181.1,414.5L179.6,413.1L178.2,409.9L176.1,410.8L173.2,406.4L174.5,405.1L173.6,399.6L171.6,398.3L171.1,394.0L173.3,394.5L175.8,392.9L175.9,389.0L177.3,385.0L180.6,383.9L182.2,386.0L186.7,390.1L188.8,386.2L193.6,386.2L195.7,387.0L199.4,386.9L204.7,385.5L231.5,385.4L249.1,385.5L250.9,376.0L247.8,373.9L243.6,335.1L239.6,300.6L236.6,275.8L257.0,275.8Z"><title>Mali</title></path>
<path d="M212.5,249.4L229.3,259.1L245.3,268.6L257.0,275.8L236.6,275.8L239.6,300.6L243.6,335.1L247.8,373.9L250.9,376.0L249.1,385.5L231.5,385.4L204.7,385.5L199.4,386.9L195.7,387.0L193.6,386.2L188.8,386.2L186.7,390.1L182.2,386.0L180.6,383.9L177.3,385.0L175.9,389.0L175.8,392.9L173.3,394.5L171.1,394.0L168.3,391.1L163.7,388.4L162.8,385.5L159.6,383.4L157.8,379.1L156.4,378.2L152.9,378.2L146.9,372.4L139.0,372.4L134.2,373.1L131.3,374.2L124.5,373.7L123.3,377.1L121.7,379.0L122.3,372.8L126.2,364.0L127.3,359.8L127.1,351.8L125.7,346.1L124.5,343.6L121.8,341.0L123.3,340.6L125.1,336.0L125.5,331.0L122.1,325.2L120.3,325.9L117.1,320.1L115.6,324.7L115.3,323.1L116.8,318.1L162.4,318.1L161.5,304.4L160.7,301.7L162.4,298.6L167.4,295.5L173.9,293.7L173.9,264.3L212.5,264.3L212.5,249.4Z"><title>Mauritania</title></path>
<path d="M976.9,801.5L974.3,800.5L977.0,795.7L978.6,795.5L980.0,798.1L979.2,800.6L976.9,801.5Z"><title>Mauritius</title></path>
<path d="M253.0,216.0L248.3,219.3L238.6,220.3L236.6,223.1L230.3,222.3L226.7,225.0L224.3,225.2L212.4,233.0L212.5,245.0L160.4,245.0L162.9,242.0L173.2,240.2L179.6,237.6L184.8,232.5L189.6,230.3L195.5,224.7L199.4,219.6L201.2,216.2L201.5,213.3L198.9,210.8L199.3,201.4L201.4,197.6L205.4,192.9L205.4,188.5L211.5,183.5L213.9,180.5L226.0,175.9L231.3,173.4L234.0,171.2L239.1,163.1L244.2,151.2L247.9,150.8L250.2,149.7L250.8,150.6L251.8,153.6L258.3,157.9L262.3,158.6L267.3,157.3L270.3,157.2L274.4,158.1L278.5,156.5L278.9,157.2L279.9,158.9L287.0,159.3L287.4,160.2L292.3,163.3L291.1,164.9L293.1,166.3L292.3,167.8L293.4,170.9L292.5,175.3L294.1,177.5L293.3,180.4L295.4,182.7L294.7,184.1L296.6,186.6L300.9,189.1L298.1,191.2L298.5,193.9L286.4,193.2L279.6,193.9L278.2,196.7L271.8,198.7L268.4,198.6L268.4,204.6L270.9,205.4L269.6,207.2L266.1,207.5L261.4,210.7L255.7,212.2L253.0,216.0Z"><title>Morocco</title></path>
<path d="M692.4,874.6L683.6,874.5L683.0,865.2L681.7,864.3L681.2,862.7L682.2,860.4L682.3,847.0L680.8,843.7L680.7,841.1L676.9,835.7L677.0,832.3L674.0,823.4L675.1,822.7L686.9,810.6L686.2,808.6L688.1,806.1L687.7,803.1L689.8,801.9L692.2,798.7L694.3,793.0L691.9,791.1L691.1,789.2L692.3,785.1L690.4,784.2L690.2,782.1L692.5,781.5L692.4,778.5L694.5,776.4L693.0,772.1L694.1,768.2L693.1,766.6L693.5,763.9L692.1,759.9L693.4,757.5L691.0,757.6L690.2,756.2L684.9,754.4L681.0,754.1L678.7,751.7L675.5,751.2L674.1,749.7L663.9,749.4L663.8,745.1L663.2,741.7L661.5,737.5L668.3,735.2L676.1,733.4L678.5,732.0L686.4,729.8L696.2,726.4L701.0,732.4L709.3,730.7L711.4,733.3L712.0,741.0L710.2,743.1L710.0,745.5L708.2,748.3L710.1,749.9L709.9,751.7L716.7,758.4L718.4,759.0L717.8,762.4L720.1,762.4L719.9,757.5L718.3,755.7L719.6,754.8L720.1,752.0L726.2,749.4L726.8,742.6L726.0,739.8L727.4,736.4L726.9,733.8L717.8,722.6L715.6,720.7L712.8,720.4L711.7,718.3L711.0,710.6L709.4,705.6L712.3,700.4L712.4,698.2L716.4,698.2L723.3,698.6L726.4,696.4L730.2,698.2L730.5,699.7L736.1,699.8L737.9,698.1L745.2,700.0L749.0,698.0L749.8,695.5L752.5,694.5L757.1,696.4L761.8,693.5L766.0,693.5L768.8,691.5L771.8,690.7L779.5,685.5L781.3,687.9L780.3,689.1L781.0,692.3L779.0,695.2L780.0,696.4L779.4,699.1L780.3,702.6L780.4,708.1L781.9,712.1L780.5,720.6L781.9,727.0L783.9,730.9L784.2,734.7L783.4,737.5L781.6,739.6L782.4,740.6L781.2,743.5L775.9,748.6L774.3,752.0L772.0,752.8L771.0,755.5L764.4,759.4L763.9,760.8L759.3,761.7L749.7,765.3L742.2,769.5L737.1,776.0L733.8,779.1L731.2,782.7L728.1,783.1L724.5,785.3L722.0,788.7L715.6,793.9L714.2,793.5L714.0,797.6L712.8,800.0L713.7,801.9L716.6,803.9L718.1,806.7L717.7,810.8L719.9,814.5L721.2,822.0L723.0,821.3L722.3,825.8L722.9,829.6L721.4,837.7L723.0,840.1L722.5,843.0L717.6,848.8L714.6,850.3L701.9,854.5L695.2,857.6L692.3,859.4L690.1,863.4L688.8,864.5L691.4,868.0L692.8,868.0L692.4,874.6Z"><title>Mozambique</title></path>
<path d="M581.4,768.5L583.7,768.1L592.5,766.4L597.4,766.6L600.9,767.3L604.3,770.1L599.2,770.6L596.4,773.0L593.8,771.9L589.3,774.5L586.5,777.3L584.7,777.8L584.6,776.2L581.6,772.4L579.0,772.5L560.4,775.9L555.0,776.1L555.0,818.6L543.5,818.7L543.5,850.5L543.5,892.8L538.5,894.0L537.1,896.1L535.2,896.3L534.9,898.3L533.1,899.0L528.7,897.6L522.4,898.4L519.4,896.9L513.5,896.0L513.5,891.8L509.6,888.2L507.9,888.6L506.3,893.0L503.0,894.6L502.3,895.0L496.1,889.8L491.9,884.7L489.2,880.1L488.5,876.1L486.7,872.9L487.7,872.0L485.5,868.8L485.6,865.6L483.9,862.0L484.4,859.6L483.5,856.5L484.1,854.3L483.4,851.5L481.3,848.4L479.6,843.0L480.1,839.7L479.2,834.9L479.5,831.8L482.2,832.5L482.0,826.0L480.3,826.6L480.1,825.0L477.5,820.0L473.6,816.1L472.5,812.7L467.3,805.4L464.3,797.0L463.2,796.1L456.4,783.1L454.7,780.7L451.4,777.8L448.4,772.1L447.9,766.4L448.3,763.8L452.1,762.4L454.5,763.5L458.1,763.5L461.3,761.3L464.5,760.3L468.1,761.0L470.2,763.3L474.1,765.8L476.7,765.3L525.6,765.4L529.1,769.5L532.3,770.4L536.7,770.8L547.4,770.8L549.8,772.2L553.4,772.6L557.7,771.7L559.4,772.6L581.4,768.5Z"><title>Namibia</title></path>
<path d="M354.2,429.5L345.3,421.4L340.2,423.0L340.2,427.1L336.3,421.8L338.5,421.1L337.3,417.9L335.5,417.5L334.2,418.9L330.8,418.7L325.4,414.3L324.0,413.8L324.0,407.8L319.7,406.5L316.6,401.4L317.3,400.0L314.5,396.8L315.3,392.3L315.2,391.3L320.6,392.0L323.8,391.5L327.7,388.0L342.9,387.3L347.4,387.3L347.6,386.3L353.2,387.2L353.7,385.4L357.6,382.7L359.5,376.4L361.1,375.2L361.0,370.3L361.7,368.3L361.6,343.4L379.7,339.9L398.6,323.7L425.1,307.8L451.0,292.9L467.4,296.4L469.7,297.4L476.9,303.4L485.8,298.9L488.0,310.5L488.1,316.3L489.1,316.9L493.0,322.5L492.4,324.7L497.3,329.5L494.5,334.3L492.7,347.6L491.8,364.0L491.3,369.4L478.5,382.8L472.6,390.9L471.8,394.4L470.4,396.6L468.0,397.9L469.9,406.1L466.7,406.1L465.0,408.3L461.2,408.9L457.9,411.4L456.4,413.6L451.2,412.4L444.9,410.1L435.5,410.1L430.0,411.3L426.6,413.5L423.8,416.7L417.2,416.2L412.6,415.0L406.3,410.9L402.8,410.3L397.8,413.2L395.9,413.0L392.6,414.4L389.7,410.4L386.7,407.4L383.4,406.8L376.6,404.1L373.6,405.7L369.0,405.4L364.2,406.5L360.4,408.9L359.9,414.4L358.2,417.3L354.8,419.8L355.1,428.8L354.2,429.5Z"><title>Niger</title></path>
<path d="M417.2,416.2L423.8,416.7L426.6,413.5L430.0,411.3L435.5,410.1L444.9,410.1L451.2,412.4L456.4,413.6L457.9,411.4L461.2,408.9L465.0,408.3L466.7,406.1L469.9,406.1L475.1,413.5L476.9,421.9L479.9,422.1L481.7,423.8L481.0,429.5L481.3,431.7L476.4,434.7L474.3,434.2L469.4,441.1L467.9,447.3L465.8,448.0L464.9,454.4L461.5,456.6L460.3,463.2L459.1,464.5L455.7,465.3L454.1,467.4L453.5,472.1L451.6,475.1L451.6,477.1L448.7,480.8L449.8,482.2L446.9,484.3L444.3,489.6L440.9,490.1L440.5,487.2L437.6,484.1L435.2,483.1L433.9,485.1L430.4,484.8L429.9,483.4L426.6,486.3L425.7,486.0L424.7,489.2L420.7,491.5L415.0,497.0L415.6,499.9L414.3,504.9L411.8,509.0L408.3,512.0L401.2,512.6L395.4,511.6L395.3,512.9L391.6,514.3L383.0,515.2L381.0,514.4L377.1,510.9L374.5,504.9L374.6,502.3L372.5,501.0L368.8,495.1L363.1,491.0L353.4,490.1L350.9,490.8L343.9,491.0L344.6,482.1L343.6,473.2L344.3,469.7L344.2,463.2L344.8,459.9L348.3,459.5L348.8,455.5L351.4,452.7L351.3,451.2L353.2,450.8L355.0,446.9L354.5,444.3L356.3,444.4L357.0,440.9L355.2,435.9L352.7,432.5L354.2,429.5L355.1,428.8L354.8,419.8L358.2,417.3L359.9,414.4L360.4,408.9L364.2,406.5L369.0,405.4L373.6,405.7L376.6,404.1L383.4,406.8L386.7,407.4L389.7,410.4L392.6,414.4L395.9,413.0L397.8,413.2L402.8,410.3L406.3,410.9L412.6,415.0L417.2,416.2Z"><title>Nigeria</title></path>
<path d="M955.9,807.0L957.5,808.6L957.2,810.7L955.5,811.4L951.7,810.1L950.3,807.3L953.0,805.4L955.9,807.0Z"><title>La Reunion</title></path>
<path d="M654.0,596.9L651.5,597.0L651.3,595.2L648.2,594.5L647.7,596.2L646.3,595.2L646.2,591.9L648.5,590.8L649.4,588.6L649.1,585.4L651.6,582.0L654.3,580.5L657.0,579.8L658.8,581.4L664.6,576.8L665.5,579.8L667.5,581.1L668.6,583.6L668.3,586.8L669.3,588.5L668.0,592.0L665.6,592.2L663.4,591.1L660.8,592.6L658.4,591.2L657.3,596.4L654.0,596.9Z"><title>Rwanda</title></path>
<path d="M387.9,564.3L387.2,562.2L389.0,559.9L390.7,561.2L387.9,564.3Z"><title>Sao Tome and Principe</title></path>
<path d="M121.7,379.0L123.3,377.1L124.5,373.7L131.3,374.2L134.2,373.1L139.0,372.4L146.9,372.4L152.9,378.2L156.4,378.2L157.8,379.1L159.6,383.4L162.8,385.5L163.7,388.4L168.3,391.1L171.1,394.0L171.6,398.3L173.6,399.6L174.5,405.1L173.2,406.4L176.1,410.8L178.2,409.9L179.6,413.1L181.1,414.5L180.6,418.4L181.2,421.2L172.5,421.5L170.0,422.5L161.7,418.6L154.2,418.1L136.8,418.0L131.4,421.0L125.3,420.6L119.5,422.2L118.6,421.1L118.5,416.7L119.1,413.7L119.8,412.5L130.0,412.5L130.0,410.4L135.9,410.1L138.0,407.5L139.8,408.9L148.4,411.7L152.3,410.7L153.1,409.3L151.0,407.7L147.0,409.1L143.9,406.7L142.5,407.3L141.0,405.4L135.5,405.2L133.7,407.6L121.2,407.6L119.3,405.0L118.4,401.4L114.2,395.3L111.8,393.6L114.7,392.1L117.6,388.7L121.4,382.6L121.7,379.0Z"><title>Senegal</title></path>
<path d="M953.9,619.8L952.0,617.9L953.2,617.2L953.9,619.8Z"><title>Seychelles</title></path>
<path d="M159.0,460.2L162.3,459.4L163.0,457.4L166.1,455.8L168.3,450.6L171.2,449.8L172.4,450.5L175.2,449.1L183.0,449.1L187.4,455.0L189.4,457.0L188.6,459.7L190.4,459.9L191.2,463.9L189.0,468.7L190.6,468.6L192.6,466.4L194.0,466.5L193.6,469.8L190.1,471.7L190.0,474.8L187.3,477.4L182.0,481.2L179.8,484.5L175.2,481.8L168.1,479.2L169.0,477.6L163.8,472.9L162.3,469.4L160.9,469.9L159.1,466.4L160.4,461.6L159.0,460.2Z"><title>Sierra Leone</title></path>
<path d="M792.5,583.9L792.5,582.9L786.0,574.5L785.9,564.5L785.9,531.9L789.9,528.0L796.5,518.6L799.8,515.9L802.0,516.0L807.7,514.7L808.9,512.3L814.8,508.8L820.5,507.2L831.7,507.9L843.3,495.2L855.2,483.0L866.7,472.1L855.5,472.1L820.8,460.5L816.4,456.5L814.1,455.6L811.4,450.2L810.0,449.8L807.4,446.5L805.3,441.6L808.5,437.5L812.0,432.1L814.4,433.4L815.0,435.1L818.5,439.6L823.9,443.9L827.2,444.3L832.2,444.0L836.0,441.4L837.5,441.3L841.5,439.0L846.7,440.0L848.9,441.1L851.3,440.4L857.3,436.6L861.2,435.3L863.6,436.3L868.4,435.9L870.9,434.3L874.4,433.7L877.1,434.7L883.4,433.5L885.0,432.3L891.0,431.6L894.9,429.7L896.3,427.2L898.9,426.2L904.6,427.8L902.9,431.7L902.5,435.4L904.0,444.1L900.3,445.5L900.4,448.8L899.2,453.9L899.7,455.5L897.4,459.6L894.9,462.2L893.7,465.8L890.6,470.6L887.8,473.2L887.6,475.4L885.2,480.0L882.8,483.2L879.3,490.5L878.9,493.5L874.6,500.7L869.2,507.9L866.9,512.2L852.6,528.0L842.6,537.4L832.3,543.0L827.0,546.6L814.8,557.0L806.9,565.6L804.1,568.1L797.3,576.3L792.5,583.9Z"><title>Somalia</title></path>
<path d="M480.3,826.6L482.0,826.0L482.2,832.5L479.5,831.8L480.3,826.6Z M573.8,866.1L577.1,857.8L578.3,856.7L583.3,856.4L588.6,860.5L591.9,860.4L593.0,861.6L597.1,862.7L601.5,861.7L605.3,862.0L608.0,860.4L611.3,852.1L611.3,850.3L617.4,849.0L619.2,846.7L622.7,844.5L624.1,838.1L628.2,834.8L630.4,834.6L631.3,832.7L633.4,832.1L640.1,825.2L643.2,825.1L646.4,823.9L647.7,821.2L651.8,820.8L655.8,820.2L662.4,822.6L669.5,821.9L674.0,823.4L677.0,832.3L676.9,835.7L680.7,841.1L680.8,843.7L682.3,847.0L682.2,860.4L681.2,862.7L681.7,864.3L680.7,864.7L675.4,861.6L672.0,863.8L671.3,865.8L668.3,870.2L668.5,874.2L672.4,878.7L676.5,880.0L681.9,879.7L682.2,874.1L683.6,874.5L692.4,874.6L691.7,877.9L689.9,882.3L688.6,889.6L686.6,894.1L681.9,898.1L679.5,898.8L673.0,905.6L667.4,914.9L663.5,920.8L659.3,925.8L652.2,930.7L646.7,936.6L642.1,940.7L634.7,946.1L625.5,951.7L618.0,954.6L612.5,953.8L608.5,955.5L608.0,957.7L603.1,956.7L600.3,957.2L599.2,959.5L585.7,957.0L582.4,958.3L577.7,958.2L575.6,957.3L568.4,958.2L565.5,961.1L561.2,961.3L558.5,962.2L553.8,961.5L552.7,962.5L548.8,962.8L543.5,966.7L539.3,966.1L535.6,964.1L535.4,962.0L532.9,961.2L529.7,961.3L530.3,959.0L526.4,958.2L525.5,953.7L522.3,949.6L518.7,943.7L521.9,943.1L523.7,941.4L524.5,937.4L523.6,932.9L522.5,930.3L519.4,926.7L516.0,921.8L512.1,915.0L508.9,905.5L506.7,900.4L504.3,898.0L503.0,894.6L506.3,893.0L507.9,888.6L509.6,888.2L513.5,891.8L513.5,896.0L519.4,896.9L522.4,898.4L528.7,897.6L533.1,899.0L534.9,898.3L535.2,896.3L537.1,896.1L538.5,894.0L543.5,892.8L543.5,850.5L548.0,853.7L550.8,858.3L551.4,861.2L552.9,863.4L553.4,866.3L550.5,870.0L550.7,873.7L551.6,874.9L553.7,874.0L556.7,874.8L559.5,874.3L562.8,874.8L564.0,872.7L567.1,872.1L569.5,868.7L573.8,866.1Z M649.0,908.4L652.7,903.4L651.3,900.5L646.9,898.1L643.3,894.5L638.0,895.9L636.1,897.9L633.6,898.5L627.7,905.6L624.6,906.6L628.7,914.7L629.7,914.7L632.9,917.9L636.8,918.5L640.3,912.8L643.7,912.6L649.4,910.1L649.0,908.4Z"><title>South Africa</title></path>
<path d="M754.6,353.5L740.1,367.1L729.1,417.6L728.1,417.6L727.7,417.8L727.0,418.0L726.8,418.0L726.5,418.1L725.8,418.3L725.8,418.3L725.6,418.2L725.0,418.2L724.9,418.2L724.9,418.2L724.8,418.3L724.7,418.3L724.7,418.3L724.7,418.4L724.7,418.5L724.7,418.5L724.7,418.7L724.6,418.9L724.5,419.0L724.3,419.0L724.2,419.0L724.2,419.0L721.7,423.1L721.7,423.2L721.8,423.3L721.8,423.6L720.3,425.8L719.9,426.7L719.6,426.9L719.4,427.1L719.3,427.2L718.0,428.1L717.7,428.5L717.6,428.6L717.5,428.8L717.4,429.0L716.2,434.6L716.4,438.6L712.1,438.6L708.7,442.3L708.6,444.5L708.8,445.1L708.9,445.3L709.1,446.1L709.1,446.2L709.2,446.5L709.2,446.6L706.5,455.0L703.9,455.0L704.6,447.1L697.2,439.6L687.6,437.2L674.6,451.7L659.0,445.7L644.7,456.7L617.1,454.0L602.8,445.5L592.7,464.3L592.4,463.9L589.6,464.0L587.7,463.7L584.2,463.7L585.0,461.3L583.5,460.8L583.4,460.3L583.5,460.1L583.5,460.1L583.7,458.9L584.4,458.6L585.2,457.9L585.5,457.5L585.5,457.4L585.6,457.5L585.6,457.5L585.7,457.3L585.7,457.2L585.6,457.0L585.6,457.0L585.6,457.0L585.5,456.9L585.4,454.3L585.7,454.0L585.7,453.8L585.8,453.7L585.8,453.7L585.9,453.5L586.2,452.9L585.9,450.3L581.6,443.6L576.7,438.4L578.0,435.2L577.5,432.7L577.4,432.7L577.4,432.7L577.3,432.7L577.0,432.7L576.7,432.7L575.7,432.8L575.7,432.4L575.6,432.3L575.5,432.2L575.4,432.1L575.4,432.1L575.3,432.0L574.3,431.5L574.0,431.3L573.7,430.9L573.6,430.8L573.1,430.3L573.0,429.6L573.1,429.1L573.2,428.9L573.2,428.6L573.3,428.4L573.5,427.4L573.9,425.6L573.9,425.3L573.7,425.4L573.4,425.3L573.3,425.3L573.3,425.3L573.0,425.3L572.1,425.7L572.3,424.2L570.9,420.8L565.8,418.6L569.9,410.4L569.2,409.2L569.1,408.5L569.2,408.2L569.2,408.1L569.1,407.9L567.7,405.4L569.3,403.5L570.0,403.1L570.3,402.8L570.4,402.7L570.4,402.7L570.4,402.7L571.1,402.3L572.8,401.5L571.6,399.4L571.9,399.0L571.7,398.6L571.7,398.5L571.7,398.0L571.8,397.4L571.6,397.1L571.2,397.0L571.2,397.0L571.1,397.0L571.0,397.0L571.1,396.7L571.2,396.5L571.4,396.0L572.4,395.6L573.7,395.3L574.3,395.1L574.9,394.9L578.2,388.6L578.2,387.7L578.2,387.6L578.1,387.5L578.1,387.4L578.1,387.4L578.0,387.0L578.1,387.0L578.1,386.8L578.1,386.8L578.1,386.7L578.0,386.5L578.0,386.5L577.9,386.4L577.9,386.4L577.7,386.2L577.6,386.1L577.4,385.9L577.4,384.9L577.5,384.7L577.6,384.6L577.6,384.6L577.7,384.6L578.6,384.2L578.8,383.7L579.1,383.6L579.4,383.3L579.5,383.2L579.5,383.2L579.6,383.1L584.8,382.6L585.8,382.5L587.5,382.7L589.3,383.2L589.6,383.2L589.6,383.2L589.7,383.2L589.7,379.7L589.7,374.0L589.7,372.8L589.7,371.7L589.7,370.5L589.7,352.0L589.7,340.5L589.7,339.3L589.7,339.2L589.7,337.0L589.7,333.6L601.3,333.6L601.3,310.5L602.9,310.4L609.1,310.4L623.7,310.4L659.0,310.4L695.6,310.4L696.8,311.3L698.1,312.2L700.1,313.6L700.2,313.6L705.3,313.1L705.8,311.7L706.1,310.6L706.2,310.4L706.2,310.3L707.0,308.1L713.2,307.0L716.2,300.6L719.2,301.4L722.0,298.9L723.1,298.0L723.2,297.9L723.9,297.2L738.6,309.7L744.6,346.5L754.6,353.5Z"><title>Sudan</title></path>
<path d="M706.5,455.0L706.8,460.1L706.8,465.0L706.8,465.3L706.4,465.8L705.5,466.5L702.5,467.9L700.8,466.7L698.2,467.3L697.2,466.9L696.5,467.0L696.1,467.5L695.9,467.5L695.9,467.5L695.8,467.5L695.9,467.6L695.8,467.7L695.9,468.1L695.9,468.7L695.9,469.6L695.8,470.6L695.5,470.9L695.4,470.9L695.2,470.9L695.0,470.9L694.6,471.3L693.6,472.8L693.6,472.8L693.6,472.8L693.6,472.9L693.6,472.9L693.7,472.9L693.7,473.2L693.8,473.4L693.8,473.4L693.8,473.5L693.7,473.5L693.7,473.8L694.2,474.4L694.2,474.6L694.4,474.6L697.3,475.5L698.2,475.3L698.5,475.2L698.5,475.1L698.5,475.1L698.5,475.0L698.5,475.0L698.7,475.1L699.0,475.1L699.1,475.1L699.2,475.1L699.2,475.1L699.3,475.2L699.3,475.2L699.4,475.2L699.6,475.2L699.6,475.3L699.6,475.3L699.9,475.6L700.3,475.8L700.4,475.6L700.4,475.6L700.6,475.5L701.4,475.7L702.8,476.7L703.4,477.3L703.6,477.6L703.6,477.6L703.7,477.7L705.6,479.5L707.4,483.2L708.7,484.1L709.2,484.2L710.3,484.5L710.3,484.5L710.4,484.5L710.5,484.5L710.7,484.7L711.3,486.5L717.0,490.1L718.2,499.6L726.7,503.2L727.7,511.1L727.4,511.1L727.0,511.1L726.7,511.1L724.7,511.1L716.0,511.2L709.6,511.3L699.6,521.2L668.9,523.3L662.0,518.8L660.8,517.3L660.5,517.0L660.2,517.0L660.1,517.0L659.9,517.0L658.4,515.5L656.7,514.1L656.7,512.4L656.8,512.3L656.9,512.2L656.9,512.1L656.9,511.9L655.6,511.2L654.5,510.7L652.8,510.7L652.8,510.8L652.8,511.0L652.8,511.2L652.9,511.5L652.2,512.8L651.7,512.9L651.4,513.7L651.2,513.9L651.0,514.0L649.8,514.4L640.1,515.1L638.2,514.3L637.5,513.8L637.4,513.7L637.4,513.7L637.5,513.6L637.5,513.6L637.5,513.5L637.1,513.2L636.3,512.0L633.4,509.8L631.1,508.1L628.9,505.0L628.5,504.7L628.4,504.5L628.1,504.5L619.3,494.9L605.4,479.7L604.5,474.4L602.4,473.5L602.3,473.4L602.2,473.3L602.2,473.2L602.1,473.2L601.9,473.0L601.6,472.8L601.3,472.6L600.9,472.3L600.2,471.6L600.0,470.8L599.8,470.4L599.7,470.1L599.7,470.1L592.7,464.3L602.8,445.5L617.1,454.0L644.7,456.7L659.0,445.7L674.6,451.7L687.6,437.2L697.2,439.6L704.6,447.1L703.9,455.0L706.5,455.0Z"><title>South Sudan</title></path>
<path d="M681.9,879.7L676.5,880.0L672.4,878.7L668.5,874.2L668.3,870.2L671.3,865.8L672.0,863.8L675.4,861.6L680.7,864.7L681.7,864.3L683.0,865.2L683.6,874.5L682.2,874.1L681.9,879.7Z"><title>Swaziland</title></path>
<path d="M772.8,624.1L772.1,627.0L770.5,627.3L771.5,624.2L770.9,621.1L773.0,621.3L772.8,624.1Z M766.2,636.9L765.3,636.7L765.1,632.9L766.3,630.7L768.2,636.3L769.6,638.3L768.5,639.2L766.2,636.9Z M667.9,659.1L667.1,656.6L664.3,652.1L662.6,646.9L659.5,643.4L655.6,640.6L653.7,636.8L653.3,633.2L654.7,631.0L654.4,629.0L651.4,620.9L652.3,615.9L656.3,615.8L659.3,613.8L664.2,605.5L668.6,602.1L668.7,598.9L666.7,598.9L663.8,597.4L665.6,592.2L668.0,592.0L669.3,588.5L668.3,586.8L668.6,583.6L667.5,581.1L665.5,579.8L664.6,576.8L667.7,576.1L698.7,576.1L704.3,576.1L705.4,576.1L709.9,578.7L747.6,599.8L748.2,602.8L746.9,605.0L748.9,606.7L765.3,618.5L765.5,620.5L760.3,634.2L761.1,637.6L763.5,639.3L766.5,643.3L768.4,643.8L769.2,646.3L767.3,648.7L766.1,652.1L768.1,654.8L768.1,656.9L766.5,660.4L767.1,665.2L770.4,670.8L770.4,672.7L772.5,679.9L777.4,682.4L779.5,685.5L771.8,690.7L768.8,691.5L766.0,693.5L761.8,693.5L757.1,696.4L752.5,694.5L749.8,695.5L749.0,698.0L745.2,700.0L737.9,698.1L736.1,699.8L730.5,699.7L730.2,698.2L726.4,696.4L723.3,698.6L716.4,698.2L716.2,697.1L712.3,692.8L712.8,687.6L711.9,686.5L711.4,680.6L709.0,676.9L705.7,674.0L704.3,676.6L702.4,675.2L698.7,675.6L697.3,674.1L693.0,673.1L688.4,671.5L687.0,670.0L681.4,668.8L681.6,667.7L678.4,667.4L676.1,664.6L670.3,663.3L667.9,659.1Z"><title>Tanzania</title></path>
<path d="M324.1,446.5L328.2,449.1L328.9,456.9L331.3,460.3L331.6,477.3L331.5,483.7L330.7,487.4L333.3,492.0L331.4,492.7L326.4,494.1L324.1,491.5L321.0,489.5L318.6,484.3L319.6,483.5L320.0,479.0L318.4,478.4L319.7,473.3L319.6,469.6L320.9,468.9L319.8,466.4L317.0,463.4L318.2,463.0L317.7,460.4L318.9,455.8L316.7,454.9L316.3,451.8L316.8,446.0L311.6,441.0L312.8,436.5L310.8,435.9L318.4,437.4L323.1,437.5L321.9,440.6L321.5,444.7L324.1,446.5Z"><title>Togo</title></path>
<path d="M445.6,181.4L445.0,187.5L446.3,189.6L444.4,190.9L438.2,193.4L433.4,198.2L431.6,198.2L429.5,201.6L431.4,207.5L430.5,209.6L426.8,213.9L422.7,215.4L417.1,193.8L409.0,188.8L408.5,185.3L406.0,182.1L402.2,181.0L401.8,178.6L399.1,173.2L399.5,170.6L402.5,168.9L403.4,166.8L407.8,164.4L408.7,159.1L409.6,158.1L408.4,155.8L409.0,153.6L407.9,150.4L409.1,143.5L410.1,141.2L412.3,139.2L412.1,137.9L415.5,136.9L417.0,135.5L424.2,133.3L426.3,135.6L427.2,134.4L430.4,134.8L430.0,136.7L432.7,140.4L439.9,136.2L440.7,138.3L437.3,143.4L433.8,145.0L433.3,147.4L435.1,150.4L439.7,152.8L439.8,156.3L441.1,157.6L436.4,164.2L431.9,167.2L429.3,168.2L428.1,169.9L429.9,173.9L433.6,176.1L436.0,175.2L436.9,177.9L438.5,176.2L440.8,177.1L441.5,181.0L445.6,181.4Z"><title>Tunisia</title></path>
<path d="M698.7,576.1L667.7,576.1L664.6,576.8L658.8,581.4L657.0,579.8L654.3,580.5L654.1,575.2L655.2,571.2L655.7,563.7L658.6,558.9L658.6,554.9L660.7,554.1L661.7,551.4L664.0,550.7L666.9,547.3L671.0,544.1L674.0,539.6L669.9,536.7L667.4,536.3L669.1,531.7L667.8,529.5L669.8,525.2L668.9,524.2L670.3,521.9L673.9,520.7L676.8,522.3L679.7,520.5L681.5,523.0L684.3,524.0L686.8,521.3L690.4,521.2L693.8,519.6L695.8,521.0L699.6,521.2L705.2,515.8L707.8,520.9L710.5,522.1L709.9,525.5L712.0,530.6L713.9,531.6L715.7,535.4L715.4,537.3L716.7,540.4L716.7,545.3L714.3,548.4L714.7,550.3L711.3,551.7L709.9,555.0L707.0,557.5L706.4,560.1L704.1,563.3L704.9,566.1L704.3,569.8L704.3,576.1L698.7,576.1Z"><title>Uganda</title></path>
<path d="M160.4,245.0L212.5,245.0L212.5,249.4L212.5,264.3L173.9,264.3L173.9,293.7L167.4,295.5L162.4,298.6L160.7,301.7L161.5,304.4L162.4,318.1L116.8,318.1L115.3,323.1L115.6,324.7L115.0,323.8L116.7,312.4L119.5,307.4L121.9,306.8L123.6,303.8L124.6,300.1L128.2,292.9L130.5,289.8L130.3,288.4L140.5,279.4L141.2,276.8L141.7,270.9L144.9,265.0L145.3,262.3L148.6,259.7L155.1,256.4L156.9,253.8L157.6,250.8L160.4,245.0Z"><title>Western Sahara</title></path>
<path d="M650.2,602.3L650.2,609.8L651.9,612.6L652.3,615.9L651.4,620.9L654.4,629.0L654.7,631.0L653.3,633.2L653.7,636.8L655.6,640.6L659.5,643.4L662.6,646.9L664.3,652.1L667.1,656.6L667.9,659.1L646.3,662.4L647.0,664.6L643.1,669.6L640.2,671.7L642.0,672.7L643.9,677.7L642.8,682.9L644.0,687.6L642.3,689.7L640.0,697.7L641.6,701.6L646.8,705.5L647.8,707.5L652.6,707.1L654.1,705.3L656.7,704.9L656.7,719.9L655.0,719.7L655.3,717.6L653.8,717.3L649.8,719.7L647.6,719.3L644.4,713.5L642.4,713.3L642.0,710.7L640.0,708.2L637.8,708.1L634.1,706.1L632.2,706.6L630.5,705.1L629.9,702.8L627.0,700.6L626.7,698.1L624.8,698.4L624.3,701.3L622.8,702.8L617.8,702.1L613.3,702.0L605.4,699.0L603.4,694.5L598.3,695.2L594.9,696.9L593.9,695.7L594.3,692.9L589.5,690.1L588.4,691.7L583.9,691.1L580.7,692.5L574.9,692.6L572.6,692.1L570.1,694.3L568.5,690.0L570.3,688.4L570.2,684.2L568.4,679.1L564.9,675.6L564.2,673.1L565.9,662.7L564.4,657.6L564.0,654.3L564.9,652.2L564.1,648.6L549.8,648.6L550.8,644.4L547.4,644.4L547.1,645.3L538.2,645.3L538.1,650.7L536.3,652.0L536.3,656.9L522.7,656.9L521.8,658.2L519.0,657.4L514.9,657.5L510.6,650.6L508.2,647.7L508.5,645.5L505.3,638.5L505.7,636.1L504.2,632.9L501.6,632.1L486.6,632.2L481.1,632.8L474.0,631.9L464.7,632.2L461.4,631.7L458.8,633.6L456.2,634.0L453.6,631.1L457.2,630.6L457.3,623.6L460.6,619.2L463.7,618.0L467.4,620.9L470.7,619.1L471.1,615.9L473.8,616.5L478.8,613.9L479.8,615.7L478.4,617.3L479.1,619.5L481.6,621.2L483.7,620.3L488.0,614.8L490.6,614.2L492.3,611.2L496.1,610.1L499.9,603.0L499.4,597.7L499.6,589.6L503.2,586.4L506.6,579.7L508.5,577.9L511.9,576.5L515.2,573.6L517.1,570.7L517.1,566.5L518.1,562.8L519.8,560.6L519.0,552.7L521.2,546.9L521.5,538.8L524.1,534.7L527.8,527.5L527.6,524.4L527.2,521.4L527.9,518.3L526.7,514.9L529.4,513.5L532.7,508.1L536.6,505.3L541.7,505.8L547.5,509.5L548.7,512.3L550.6,513.6L553.2,513.1L557.5,515.0L561.0,515.5L562.6,514.9L566.5,515.5L569.6,516.8L572.9,515.7L576.9,508.9L581.9,511.4L584.8,509.9L594.0,506.7L594.3,505.4L598.2,507.8L604.8,506.4L605.4,503.1L607.5,502.4L611.8,504.7L615.1,504.1L618.8,506.3L622.8,506.5L625.3,504.4L629.6,506.6L633.2,509.2L633.4,511.4L640.1,515.0L643.4,513.4L644.9,511.8L647.6,512.6L649.8,514.3L651.2,513.9L652.8,510.7L656.9,511.9L656.7,514.0L658.5,515.0L661.3,518.7L665.4,520.0L666.0,522.9L668.1,522.3L668.9,524.2L669.8,525.2L667.8,529.5L669.1,531.7L667.4,536.3L669.9,536.7L674.0,539.6L671.0,544.1L666.9,547.3L664.0,550.7L661.7,551.4L660.7,554.1L658.6,554.9L658.6,558.9L655.7,563.7L655.2,571.2L654.1,575.2L654.3,580.5L651.6,582.0L649.1,585.4L649.4,588.6L648.5,590.8L646.2,591.9L646.3,595.2L647.7,596.2L647.3,597.0L650.0,599.4L650.2,602.3Z"><title>DR Congo</title></path>
<path d="M600.9,767.3L597.4,766.6L592.5,766.4L583.7,768.1L580.5,766.4L572.2,758.3L568.1,754.9L566.6,751.3L566.6,714.7L589.9,714.7L588.5,712.7L590.3,707.7L589.4,705.4L589.3,699.1L590.7,696.2L589.5,690.1L594.3,692.9L593.9,695.7L594.9,696.9L598.3,695.2L603.4,694.5L605.4,699.0L613.3,702.0L617.8,702.1L622.8,702.8L624.3,701.3L624.8,698.4L626.7,698.1L627.0,700.6L629.9,702.8L630.5,705.1L632.2,706.6L634.1,706.1L637.8,708.1L640.0,708.2L642.0,710.7L642.4,713.3L644.4,713.5L647.6,719.3L649.8,719.7L653.8,717.3L655.3,717.6L655.0,719.7L656.7,719.9L656.7,704.9L654.1,705.3L652.6,707.1L647.8,707.5L646.8,705.5L641.6,701.6L640.0,697.7L642.3,689.7L644.0,687.6L642.8,682.9L643.9,677.7L642.0,672.7L640.2,671.7L643.1,669.6L647.0,664.6L646.3,662.4L667.9,659.1L670.3,663.3L676.1,664.6L678.4,667.4L681.6,667.7L681.4,668.8L687.0,670.0L688.4,671.5L693.0,673.1L693.6,675.6L696.0,675.4L697.8,679.2L697.5,680.9L700.1,682.6L701.8,686.5L698.9,689.3L696.5,690.4L698.4,693.4L696.5,696.5L697.4,698.7L696.8,704.8L698.1,707.0L697.9,709.3L694.5,709.8L693.2,711.8L694.0,713.6L693.4,717.3L691.2,722.1L693.5,725.5L696.2,726.4L686.4,729.8L678.5,732.0L676.1,733.4L668.3,735.2L661.5,737.5L663.2,741.7L663.8,745.1L657.0,744.9L650.2,746.8L645.8,749.9L645.8,753.8L644.6,755.7L638.9,757.7L633.9,760.4L631.5,764.7L628.4,767.5L624.8,771.9L620.9,773.3L615.0,771.3L612.5,772.5L609.2,770.2L607.2,770.8L604.3,770.1L600.9,767.3Z"><title>Zambia</title></path>
<path d="M693.5,763.9L693.1,766.6L694.1,768.2L693.0,772.1L694.5,776.4L692.4,778.5L692.5,781.5L690.2,782.1L690.4,784.2L692.3,785.1L691.1,789.2L691.9,791.1L694.3,793.0L692.2,798.7L689.8,801.9L687.7,803.1L688.1,806.1L686.2,808.6L686.9,810.6L675.1,822.7L674.0,823.4L669.5,821.9L662.4,822.6L655.8,820.2L651.8,820.8L648.5,819.2L648.4,816.6L643.4,814.6L636.0,813.5L634.0,809.6L632.3,807.9L632.7,801.5L627.7,801.2L627.7,798.3L626.7,796.5L621.3,794.7L616.9,791.1L614.5,789.7L612.7,783.9L609.6,779.2L607.4,777.1L604.0,771.5L604.3,770.1L607.2,770.8L609.2,770.2L612.5,772.5L615.0,771.3L620.9,773.3L624.8,771.9L628.4,767.5L631.5,764.7L633.9,760.4L638.9,757.7L644.6,755.7L645.8,753.8L645.8,749.9L650.2,746.8L657.0,744.9L663.8,745.1L663.9,749.4L674.1,749.7L675.5,751.2L678.7,751.7L681.0,754.1L684.9,754.4L690.2,756.2L691.0,757.6L693.4,757.5L692.1,759.9L693.5,763.9Z"><title>Zimbabwe</title></path>
</g>
<g fill="#222" text-anchor="middle" dominant-baseline="middle">
<text x="342.9" y="239.3" font-size="13.0">Algeria</text>
<text x="515.5" y="707.0" font-size="9.8">Angola</text>
<text x="339.6" y="453.2" font-size="7.0">Benin</text>
<text x="587.6" y="820.7" font-size="7.0">Botswana</text>
<text x="292.4" y="422.8" font-size="7.0">Burkina Faso</text>
<text x="657.7" y="603.2" font-size="7.0">Burundi</text>
<text x="459.7" y="499.0" font-size="7.0">Cameroon</text>
<text x="39.7" y="390.4" font-size="7.0">Cape Verde</text>
<text x="549.2" y="488.6" font-size="7.0">Central African Republic</text>
<text x="528.1" y="387.2" font-size="10.0">Chad</text>
<text x="813.0" y="699.1" font-size="7.0">Comoros</text>
<text x="488.4" y="574.3" font-size="7.0">Congo</text>
<text x="804.2" y="428.9" font-size="7.0">Djibouti</text>
<text x="657.5" y="258.5" font-size="9.2">Egypt</text>
<text x="433.5" y="546.4" font-size="7.0">Equatorial Guinea</text>
<text x="761.1" y="387.2" font-size="7.0">Eritrea</text>
<text x="770.0" y="464.9" font-size="9.3">Ethiopia</text>
<text x="448.8" y="571.3" font-size="7.0">Gabon</text>
<text x="133.9" y="409.2" font-size="7.0">Gambia</text>
<text x="298.6" y="472.6" font-size="7.0">Ghana</text>
<text x="186.1" y="443.9" font-size="7.0">Guinea</text>
<text x="139.9" y="425.4" font-size="7.0">Guinea-Bissau</text>
<text x="248.4" y="476.5" font-size="7.0">Ivory Coast</text>
<text x="749.7" y="558.4" font-size="7.0">Kenya</text>
<text x="638.7" y="906.2" font-size="7.0">Lesotho</text>
<text x="205.0" y="490.1" font-size="7.0">Liberia</text>
<text x="520.7" y="252.2" font-size="11.7">Libya</text>
<text x="851.9" y="788.3" font-size="7.0">Madagascar</text>
<text x="708.8" y="717.2" font-size="7.0">Malawi</text>
<text x="271.8" y="364.2" font-size="9.9">Mali</text>
<text x="193.2" y="330.5" font-size="9.1">Mauritania</text>
<text x="977.4" y="798.7" font-size="7.0">Mauritius</text>
<text x="239.6" y="196.3" font-size="7.0">Morocco</text>
<text x="723.1" y="763.9" font-size="7.9">Mozambique</text>
<text x="511.4" y="820.1" font-size="8.2">Namibia</text>
<text x="421.1" y="363.3" font-size="9.7">Niger</text>
<text x="406.1" y="453.8" font-size="8.3">Nigeria</text>
<text x="954.0" y="808.5" font-size="7.0">La Reunion</text>
<text x="658.1" y="587.5" font-size="7.0">Rwanda</text>
<text x="388.7" y="561.9" font-size="7.0">Sao Tome and Principe</text>
<text x="145.4" y="398.7" font-size="7.0">Senegal</text>
<text x="953.0" y="618.3" font-size="7.0">Seychelles</text>
<text x="176.5" y="465.5" font-size="7.0">Sierra Leone</text>
<text x="842.2" y="494.4" font-size="7.0">Somalia</text>
<text x="603.2" y="899.5" font-size="10.4">South Africa</text>
<text x="658.8" y="379.6" font-size="12.1">Sudan</text>
<text x="662.9" y="482.0" font-size="7.0">South Sudan</text>
<text x="676.3" y="871.3" font-size="7.0">Swaziland</text>
<text x="714.6" y="637.0" font-size="8.4">Tanzania</text>
<text x="323.8" y="465.9" font-size="7.0">Togo</text>
<text x="423.0" y="170.6" font-size="7.0">Tunisia</text>
<text x="686.6" y="549.8" font-size="7.0">Uganda</text>
<text x="160.8" y="279.7" font-size="7.0">Western Sahara</text>
<text x="585.8" y="597.8" font-size="13.0">DR Congo</text>
<text x="633.6" y="719.9" font-size="7.6">Zambia</text>
<text x="657.5" y="784.0" font-size="7.0">Zimbabwe</text>
</g>
</svg>